<svg width="24" height="24" viewBox="0 0 24 24" fill="none" xmlns="http://www.w3.org/2000/svg">
<path d="M14.8454 21.4284H9.58299C4.82046 21.4284 2.78564 19.3936 2.78564 14.6311V9.36863C2.78564 4.60611 4.82046 2.57129 9.58299 2.57129H14.8454C19.608 2.57129 21.6428 4.60611 21.6428 9.36863V14.6311C21.6428 19.3936 19.608 21.4284 14.8454 21.4284ZM9.58299 3.8869C5.53966 3.8869 4.10126 5.32531 4.10126 9.36863V14.6311C4.10126 18.6744 5.53966 20.1128 9.58299 20.1128H14.8454C18.8888 20.1128 20.3272 18.6744 20.3272 14.6311V9.36863C20.3272 5.32531 18.8888 3.8869 14.8454 3.8869H9.58299Z" fill="#FE6603"/>
<path d="M20.5289 8.36884H3.89951C3.53991 8.36884 3.2417 8.07063 3.2417 7.71103C3.2417 7.35143 3.53113 7.05322 3.89951 7.05322H20.5289C20.8885 7.05322 21.1867 7.35143 21.1867 7.71103C21.1867 8.07063 20.8972 8.36884 20.5289 8.36884Z" fill="#FE6603"/>
<path d="M9.16196 8.24617C8.80236 8.24617 8.50415 7.94797 8.50415 7.58837V3.32578C8.50415 2.96617 8.80236 2.66797 9.16196 2.66797C9.52156 2.66797 9.81977 2.96617 9.81977 3.32578V7.58837C9.81977 7.94797 9.52156 8.24617 9.16196 8.24617Z" fill="#FE6603"/>
<path d="M15.2665 7.85149C14.9068 7.85149 14.6086 7.55329 14.6086 7.19368V3.32578C14.6086 2.96617 14.9068 2.66797 15.2665 2.66797C15.6261 2.66797 15.9243 2.96617 15.9243 3.32578V7.19368C15.9243 7.56206 15.6348 7.85149 15.2665 7.85149Z" fill="#FE6603"/>
<path d="M11.4161 17.3674C11.1003 17.3674 10.8021 17.2885 10.5303 17.1394C9.93384 16.7886 9.58301 16.0869 9.58301 15.2011V13.0961C9.58301 12.2102 9.93384 11.4998 10.539 11.149C11.1442 10.7981 11.9336 10.8508 12.6966 11.2981L14.5209 12.3506C15.284 12.7891 15.7313 13.4469 15.7313 14.1486C15.7313 14.8502 15.284 15.508 14.5122 15.9466L12.6879 16.9991C12.2669 17.2446 11.8283 17.3674 11.4161 17.3674ZM11.4249 12.2365C11.3372 12.2365 11.2582 12.2541 11.1968 12.2892C11.0126 12.3944 10.8986 12.6926 10.8986 13.0961V15.2011C10.8986 15.5957 11.0126 15.8939 11.1968 16.008C11.381 16.1132 11.6968 16.0606 12.0388 15.8589L13.8631 14.8064C14.2052 14.6046 14.4157 14.3591 14.4157 14.1486C14.4157 13.9381 14.214 13.6925 13.8631 13.4908L12.0388 12.4383C11.8108 12.3067 11.5915 12.2365 11.4249 12.2365Z" fill="#FE6603"/>
</svg>
