<svg width="32" height="32" viewBox="0 0 32 32" fill="none" xmlns="http://www.w3.org/2000/svg">
<path fill-rule="evenodd" clip-rule="evenodd" d="M13.9253 6.66663L13.8106 7.2489L13.372 9.37952C12.6706 9.64734 12.0346 10.0271 11.46 10.4775L9.31596 9.76062L8.73997 9.58207L8.4413 10.0964L6.96529 12.5641L6.66663 13.0785L7.10396 13.4609L8.76263 14.8719C8.70263 15.241 8.62531 15.6061 8.62531 15.9939C8.62531 16.3816 8.70263 16.7468 8.76263 17.1158L7.10396 18.5269L6.66663 18.9093L6.96529 19.4236L8.4413 21.8914L8.73997 22.407L9.31596 22.2272L11.46 21.5103C12.0346 21.9607 12.6706 22.3404 13.372 22.6082L13.8106 24.7388L13.9253 25.3212H18.0733L18.1893 24.7388L18.6266 22.6082C19.328 22.3404 19.964 21.9607 20.5386 21.5103L22.6826 22.2272L23.2586 22.407L23.5586 21.8914L25.0333 19.4236L25.3333 18.9093L24.8946 18.5269L23.236 17.1158C23.2973 16.7468 23.3733 16.3816 23.3733 15.9939C23.3733 15.6061 23.2973 15.241 23.236 14.8719L24.8946 13.4609L25.3333 13.0785L25.0333 12.5641L23.5586 10.0964L23.2586 9.58207L22.6826 9.76062L20.5386 10.4775C19.964 10.0271 19.328 9.64734 18.6266 9.37952L18.1893 7.2489L18.0733 6.66663H13.9253Z" stroke="url(#paint0_linear_2_352)" stroke-width="1.33333" stroke-linecap="square" stroke-linejoin="round"/>
<path fill-rule="evenodd" clip-rule="evenodd" d="M18.6661 15.9939C18.6661 17.4649 17.4715 18.6588 15.9995 18.6588C14.5275 18.6588 13.3328 17.4649 13.3328 15.9939C13.3328 14.5228 14.5275 13.329 15.9995 13.329C17.4715 13.329 18.6661 14.5228 18.6661 15.9939Z" stroke="url(#paint1_linear_2_352)" stroke-width="1.33333" stroke-linecap="square" stroke-linejoin="round"/>
<defs>
<linearGradient id="paint0_linear_2_352" x1="22.72" y1="8.66533" x2="9.77333" y2="25.3225" gradientUnits="userSpaceOnUse">
<stop stop-color="#FF7100"/>
<stop offset="0.9999" stop-color="#FF0200"/>
<stop offset="1" stop-color="#FF0000"/>
</linearGradient>
<linearGradient id="paint1_linear_2_352" x1="22.72" y1="8.66533" x2="9.77333" y2="25.3225" gradientUnits="userSpaceOnUse">
<stop stop-color="#FF7100"/>
<stop offset="0.9999" stop-color="#FF0200"/>
<stop offset="1" stop-color="#FF0000"/>
</linearGradient>
</defs>
</svg>
